<?xml version="1.0" encoding="utf-8"?>
<!-- Generator: Adobe Illustrator 18.0.0, SVG Export Plug-In . SVG Version: 6.00 Build 0)  -->
<!DOCTYPE svg PUBLIC "-//W3C//DTD SVG 1.1//EN" "http://www.w3.org/Graphics/SVG/1.1/DTD/svg11.dtd">
<svg version="1.1" id="Layer_1" xmlns="http://www.w3.org/2000/svg" xmlns:xlink="http://www.w3.org/1999/xlink" x="0px" y="0px"
	 viewBox="0 7.2 72 57.6" enable-background="new 0 7.2 72 57.6" xml:space="preserve">
<path id="path12_2_" fill="#FFFFFF" d="M68.7,38.7c0-0.2,0-0.5,0-0.7s0-0.3,0-0.4c0-0.1,0-0.3,0-0.4c0-0.3,0-0.6,0-0.8
	c0.1-0.7,0.2-1.4,0.3-2.1c0-0.5,0.1-1,0.1-1.5V32l0.1-1.1l0.1-1.4c0-0.1,0-0.2,0-0.3s0-0.2,0-0.3l-0.1-1.3c0.1,0.6,0.3,1.2,0.3,1.9
	l0.3,2.3v0.3l0.1,0.6v0.5v0.7v0.6l0.1,1.1l0.1,1.4l0.1,1v1.8v0.6V41l-0.1,0.7c0,0.1,0,0.3,0,0.4c0,0.2,0,0.4,0,0.6c0,0,0,0,0,0.1
	s0,0.3,0,0.4c0.1,0.3,0.1,0.5,0.2,0.8c0,0.3,0.1,0.6,0.1,0.8c0.1,0.3,0.1,0.6,0.1,0.9v0.6c0,0.1,0.1,0.2,0.2,0.3s0.3,0.2,0.5,0.2
	c0,0,0,0,0.1,0s0.3,0,0.4-0.1c0.2-0.1,0.3-0.3,0.3-0.5V45c0-0.5,0-1-0.1-1.5c-0.1-0.4-0.1-0.9,0-1.3c0-0.1,0-0.3,0.1-0.4
	c0-0.1,0-0.3,0-0.4l0,0c0-0.1,0-0.2-0.1-0.3c-0.1-0.2-0.2-0.3-0.3-0.6c-0.1-0.3-0.2-0.5-0.3-0.8c-0.1-0.2-0.1-0.4-0.1-0.7
	c0-0.4,0-0.7,0-1.1l0,0c0-0.5,0-1,0.1-1.5c0.1-0.4,0.1-0.9,0.1-1.3v-2.9v-3.7v-1.6c0-0.3,0-0.6,0-0.8c0-0.9-0.2-1.8-0.5-2.6
	c-0.3-0.8-0.7-1.5-1.3-2.2c-0.5-0.6-1.1-1.1-1.8-1.6c-0.4-0.3-0.9-0.6-1.3-0.7c-0.7-0.3-1.4-0.5-2.1-0.7c-0.5-0.1-1-0.2-1.5-0.2
	c-0.3,0-0.8,0-1.2,0c-0.3,0-0.4,0-0.5,0c-0.7,0-1.4,0-2,0.2c-0.3,0.1-0.6,0.1-0.9,0.2c-0.5,0.1-0.9,0.1-1.3,0.2
	c-1.1,0.1-2.2,0.2-3.3,0.3c-1.9,0.1-4.1,0.3-6.2,0.5c-0.9,0.1-1.6,0.2-2.4,0.2c-0.2,0-0.5,0-0.8,0.1c-0.3,0-0.6,0-0.9,0
	c-0.2,0-0.4,0-0.6-0.1c-0.8-0.1-1.5-0.2-2.3-0.2c-2,0-4.1-0.1-6.1-0.4c-2.2-0.3-4.4-0.5-6.7-0.5c-0.1,0-0.2,0-0.2,0
	c-0.6,0-1.2,0-1.7,0c-0.6,0-1.2,0.1-1.9,0.2c-0.6,0.1-1.2,0.1-1.8,0.2c-0.8,0.1-1.5,0.1-2.3,0.1c-0.5,0-1.1-0.1-1.6-0.1
	c-0.6,0-1.2-0.2-1.8-0.3c-0.7-0.2-1.4-0.4-2.1-0.7c-0.3-0.1-0.5-0.2-0.8-0.4l-0.4-0.3l0.2-0.4c0.1-0.1,0.1-0.2,0.1-0.3
	c0,0,0,0,0-0.1c0-0.2-0.1-0.3-0.3-0.4s-0.4-0.2-0.7-0.2c-0.2-0.1-0.3-0.1-0.5-0.2s-0.5-0.2-0.7-0.3c-0.3,0-0.5-0.2-0.6-0.4l-0.9-1.1
	l-0.1-0.1c0,0,0,0-0.1,0s-0.1,0-0.2,0.1c0,0.1,0,0.1,0,0.2s0,0.1,0,0.2l0.1,0.3l0.2,0.6l0.3,0.7l0,0c-0.4,0-0.7,0.1-1.1,0.3
	c-0.2,0.1-0.4,0.2-0.6,0.4c-0.3,0.2-0.5,0.3-0.7,0.5c-0.1,0.1-0.1,0.1-0.2,0.2c-0.3-0.2-0.4-0.2-0.6-0.2c-0.2,0-0.4-0.2-0.6-0.4
	l-1-1.3C5,15.3,5,15.3,4.9,15.3l0,0c-0.1,0-0.2,0-0.2,0.1s-0.1,0.2-0.1,0.3c0,0,0,0.1,0,0.2l0.2,0.4L5.1,17l0.2,0.5l0.3,0.3l0.2,0.3
	l0.4,0.7v0.1c0,0.1,0,0.1-0.1,0.2c-0.2,0.2-0.3,0.4-0.6,0.6C5.3,19.9,5.1,20,4.9,20c-0.3,0.1-0.5,0.3-0.5,0.5
	c-0.1,0.2-0.1,0.5-0.2,0.7c0,0.4-0.2,0.7-0.5,1c-0.2,0.2-0.4,0.4-0.5,0.6c-0.2,0.3-0.5,0.7-0.7,1S2.1,24.4,2,24.6
	c-0.1,0.3-0.3,0.7-0.6,0.9L0,27.1c0,0.1,0,0.2,0,0.3c0,0.1,0,0.2,0,0.2c0,0.3,0.1,0.6,0.2,0.9c0.1,0.3,0.2,0.5,0.4,0.7
	s0.3,0.4,0.5,0.5s0.5,0.3,0.7,0.4c0.1,0,0.2,0,0.3,0c0.2,0,0.4,0,0.5-0.1C2.8,30,2.9,30,3.1,29.8c0.3-0.1,0.5-0.1,0.8,0
	C4.3,29.9,4.6,29.9,5,30c-0.1,0,0.1,0,0.3,0s0.4,0,0.6,0c0.3-0.1,0.7-0.2,1-0.2c0.2,0,0.5-0.1,0.8-0.3c0.2-0.1,0.4-0.1,0.7,0
	s0.5,0.2,0.8,0.3c0.6,0.3,1.2,0.5,1.8,0.6c0.2,0,0.5,0.1,0.7,0.1c0.3,0,0.7,0.1,1,0.1s0.5,0.1,0.8,0.2c0.5,0.2,0.9,0.6,1.2,1
	c0.4,0.6,0.7,1.2,1,1.8c0.2,0.5,0.5,1,0.8,1.5c0.2,0.3,0.4,0.8,0.6,1.2c0.2,0.6,0.5,1.1,0.7,1.6c0.2,0.4,0.3,0.7,0.5,1.1
	c0,0.1,0.1,0.2,0.2,0.3c0.6,0.9,1.5,1.5,2.5,1.8l0.6,0.2L21,41.9l-1.3,1.2L19,43.8l-0.6,0.6c-0.2,0.3-0.3,0.5-0.5,0.8
	s-0.3,0.5-0.4,0.7s-0.1,0.4-0.1,0.6c0,0.1,0,0.2,0,0.3c0.1,0.3,0.2,0.7,0.4,1l0.3,0.6l0.4,0.6l1.2,1.2l0.6,0.6l0.5,0.5l0.3,0.3
	l0.8,1l1.5,1.5l0.8,0.7l0.6,0.5l0.5,0.3l0.3,0.2h0.2c0.2,0.5,0.6,1,1,1.4c0.2,0.2,0.4,0.3,0.6,0.3s0.4,0.1,0.6,0.1h0.1
	c0.1,0,0.2,0,0.3,0h0.1l-1.2-3.5c0-0.1-0.1-0.3-0.3-0.3l-1-0.2c-0.1,0-0.1-0.1-0.1-0.2c0.1-0.2,0.1-0.4,0.2-0.6c0,0,0-0.1,0-0.2
	c0-0.2-0.1-0.4-0.3-0.5c-0.2-0.1-0.3-0.2-0.5-0.2c-0.3,0-0.5-0.2-0.7-0.3c-0.3-0.2-0.6-0.4-0.8-0.6c-0.4-0.3-0.7-0.7-0.9-1.1
	c-0.2-0.4-0.4-0.8-0.6-1.2S22,48,22,47.7c0-0.4,0-0.7,0.3-1.1c0.2-0.3,0.6-0.6,0.9-0.8c0.4-0.2,0.9-0.4,1.3-0.6
	c0.4-0.2,0.8-0.4,1.2-0.5c0.4-0.1,0.7-0.3,1.1-0.6c0.2-0.2,0.5-0.3,0.7-0.5c0.5-0.3,0.9-0.7,1.2-1.3l0.1-0.3l0.6,1.2l0.2,0.5
	l0.2,0.4l0.4,0.5l0.5,0.7l0.7,1l0.6,0.9l0.6,1l0.3,0.5l0.9,1.5l0.3,0.7l0.4,0.9l0.2,0.5l0.2,0.5c0.1,0.3,0.2,0.5,0.2,0.8
	c0,0.2,0.1,0.4,0.1,0.6c0,0.1,0,0.2,0,0.3c0,0.3-0.1,0.6-0.3,0.9l-0.7,0.8l-0.1,0.2c-0.7,0.2-1.2,0.8-1.4,1.5v0.2h3.9
	c0.3-0.3,0.5-0.8,0.5-1.2c0-0.3-0.1-0.6-0.2-0.8L36.8,56c0-0.1,0-0.2,0.1-0.2l0,0h0.5c0.3,0,0.5-0.3,0.5-0.6v-0.1l-0.2-0.9l-0.3-1.1
	L37,51.7l-0.4-1.3l-0.2-0.9L36,48.5l-0.1-0.6l-0.1-0.6l-0.1-0.5l-0.1-0.5l-0.1-0.4l-0.3-1c-0.1-0.4-0.3-0.9-0.4-1.3
	c-0.2-0.7-0.4-1.3-0.8-1.9l-0.2-0.4h1.8c0.1,0,0.3,0,0.4,0c0.5,0,1.1,0,1.6,0c0.9,0,1.8,0,2.6,0.2c1.2,0.3,2.5,0.4,3.8,0.4
	c0.1,0,0.3,0,0.4,0c1.4,0,2.7-0.1,4.1-0.4c0.9-0.2,1.6-0.3,2.3-0.5h0.1c0.5,0.4,1.1,0.8,1.7,1.1h0.1l-0.3,1.8c0,0.4,0.3,0.7,0.7,0.7
	c0.3,0,0.6-0.2,0.7-0.4l0.6-1.5l0.9,0.2l-0.2,1.5v0.1c0,0.1,0,0.3,0.1,0.4c0.1,0.2,0.3,0.3,0.5,0.3h0.1c0.1,0,0.3,0,0.4,0
	c0.2,0,0.3-0.2,0.4-0.4l0.3-1.7h0.8c0,0.3,0.1,0.6,0.1,0.9v0.1c0,0.5,0,0.9-0.1,1.4c0,0.4-0.1,0.8-0.3,1.1c-0.3,0.7-0.7,1.5-1.1,2.2
	L56,49.3l-0.5,0.9c-0.2,0.5-0.5,0.9-0.9,1.3l-0.3,0.3L54,52.1l-1,0.8l-0.6,0.6l-0.8,0.6c-0.1,0.1-0.2,0.2-0.3,0.2
	c-0.5,0.5-0.9,1.1-1.2,1.7L50,56.3c-0.3,0.1-0.7,0.3-0.9,0.5c-0.3,0.3-0.6,0.6-0.8,1.1l-0.1,0.2h3.6h0.3h0.1l1.1-2.1
	c0-0.1,0.1-0.1,0.2-0.1h0.1l0.3,0.3c0,0,0.1,0.1,0.2,0.1s0.1,0,0.1,0c0.1-0.1,0.2-0.1,0.3-0.2l0.1-0.1l0.4-0.5l0.3-0.5l1.2-2.1
	c0.2-0.3,0.3-0.5,0.5-0.7s0.4-0.5,0.7-0.7l0.6-0.5l2.4-1.8c0.1-0.1,0.2-0.3,0.2-0.4l0.7-3l0.1-0.5l0.3-0.8l0.3-0.6l0.3-0.3
	c0.4,0.7,0.9,1.4,1.4,2c0.3,0.3,0.6,0.6,0.9,0.9c0.4,0.4,0.7,0.8,0.9,1.3c0.5,1,0.9,2.1,1.1,3.1c0.1,0.6,0.2,1.2,0.3,1.8
	c0,0.2,0,0.5,0,0.8s0,0.6-0.1,0.8c0,0.2-0.1,0.3-0.2,0.5c-0.1,0.1-0.2,0.3-0.3,0.5c-0.1,0.1-0.1,0.3-0.1,0.4v0.4l-0.4,0.5L66,56.8
	c-0.2,0.2-0.3,0.5-0.3,0.7L65.6,58h3.9l0.4-0.6c0.1-0.1,0.1-0.3,0.1-0.5c0-0.1,0-0.2,0-0.2c0-0.1-0.1-0.3-0.2-0.4
	c0-0.1-0.1-0.2-0.1-0.3s-0.1-0.3-0.1-0.4c0-0.1,0-0.2,0.1-0.3s0.2-0.1,0.3-0.2l0.4-0.1c0.1,0,0.1,0,0.2-0.1s0.1-0.3,0.1-0.4
	c0-0.1,0-0.2,0-0.3s-0.1-0.2-0.1-0.3c-0.1-0.9-0.3-1.8-0.5-2.7L70,50.4l-0.3-1.9c0-0.3-0.1-0.6-0.1-0.9c0-0.3,0-0.6,0-0.9
	c0.1-0.6,0.2-1.1,0.3-1.7c0.1-0.5,0.1-1,0.2-1.5c0-0.1,0-0.3,0-0.4c0-0.1,0-0.3,0-0.4c0-0.4-0.2-0.8-0.4-1.1
	c-0.1-0.2-0.2-0.3-0.3-0.5l-0.3-0.7c0-0.1-0.1-0.2-0.1-0.2C68.8,39.8,68.7,39.3,68.7,38.7L68.7,38.7z"/>
</svg>
