<?xml version="1.0" encoding="utf-8"?>
<!-- Generator: Adobe Illustrator 18.0.0, SVG Export Plug-In . SVG Version: 6.00 Build 0)  -->
<!DOCTYPE svg PUBLIC "-//W3C//DTD SVG 1.1//EN" "http://www.w3.org/Graphics/SVG/1.1/DTD/svg11.dtd">
<svg version="1.1" id="Layer_1" xmlns="http://www.w3.org/2000/svg" xmlns:xlink="http://www.w3.org/1999/xlink" x="0px" y="0px"
	 viewBox="0 0 48 36" enable-background="new 0 0 48 36" xml:space="preserve">
<g>
	<g>
		<circle fill="#FFFFFF" cx="24" cy="20.9" r="7.5"/>
		<path fill="#FFFFFF" d="M46,6.1H33.7l-0.4-2.9c0-1.6-1.3-3-3-3H17.6c-1.6,0-3,1.3-3,3l-0.4,2.9H2C0.9,6.1,0,7,0,8.1v25.6
			c0,1.1,0.9,2,2,2h44c1.1,0,2-0.9,2-2V8.1C48,7,47.1,6.1,46,6.1z M24,33.1c-6.8,0-12.2-5.5-12.2-12.2c0-6.8,5.5-12.2,12.2-12.2
			s12.2,5.5,12.2,12.2C36.2,27.6,30.8,33.1,24,33.1z M45.7,11.4H35.3V8.3h10.4V11.4z"/>
	</g>
</g>
</svg>
