<?xml version="1.0" encoding="utf-8"?>
<!-- Generator: Adobe Illustrator 18.0.0, SVG Export Plug-In . SVG Version: 6.00 Build 0)  -->
<!DOCTYPE svg PUBLIC "-//W3C//DTD SVG 1.1//EN" "http://www.w3.org/Graphics/SVG/1.1/DTD/svg11.dtd">
<svg version="1.1" id="Layer_1" xmlns="http://www.w3.org/2000/svg" xmlns:xlink="http://www.w3.org/1999/xlink" x="0px" y="0px"
	 viewBox="0 0 72 54" enable-background="new 0 0 72 54" xml:space="preserve">
<path fill="#FFFFFF" d="M38.8,40.7c-0.9-0.3-2.6-1.2-3.8-2.1l-2.3-1.5l-3.4-0.3c-1.9-0.2-3.5-0.4-3.6-0.5c-0.2-0.1-0.2,0.1,0,0.4
	c0.4,1,0.5,2.1,0.2,2.1c-0.6,0-2.1-0.9-3.4-2.2c-0.8-0.7-1.5-1.2-1.7-1.1c-0.3,0.1-2.2-0.2-7.9-1.3c-1.9-0.4-3.8-1.1-7.6-2.9
	c-1.4-0.7-3.1-1.5-3.9-1.8C0.2,29-0.1,28.8,0,28.3c0-0.3,0.4-0.8,0.7-1c0.5-0.4,0.7-0.3,1.2,0.2c0.5,0.5,1,0.7,2.8,0.8
	c1.2,0.1,2.2,0.1,2.3,0.1c0,0-0.3-0.5-0.8-1.1c-0.5-0.6-1-0.9-1.3-0.8c-0.2,0.1-0.4,0-0.4-0.2s-0.1-0.2-0.3-0.2
	c-0.2,0.1-0.3,0.1-0.3-0.1c0-0.3-1.4-0.3-1.9,0c-0.4,0.2-1.5-0.3-1.5-0.7c0-0.6,0.8-1.6,1.7-2C2.8,23.1,3.9,23,5.8,23
	c2.8,0,5.8-0.5,9.3-1.4c4.6-1.3,10-2.1,15.2-2.3c1.1,0,2-0.2,1.9-0.3c-0.1-0.1,0.2-0.3,0.6-0.5c0.9-0.4,1-0.4,0.8,0
	c-0.1,0.2-0.1,0.3,0,0.2c0.1-0.1,0.2-0.3,0.2-0.4c0.1-0.3,0.9-1,1.2-1c0.1,0,0.1,0.1,0,0.3c-0.1,0.2-0.1,0.3,0.1,0.1
	c0.1-0.1,0.3-0.4,0.3-0.5c0-0.4,4.4-2.8,4.9-2.6c0.2,0.1,0.3,0,0.2-0.1c-0.1-0.2,1.6-0.9,2.4-0.9c0.3,0,0.4,0.3,0.4,0.8
	c0,1.9,0.1,2.4,1.1,3.6c0.5,0.7,1,1.3,1,1.4c0,0.2-1.8,0.7-2.5,0.7c-0.5,0,0,0.3,1.2,0.7c2.7,0.9,3,1,2.8,1.4
	c-0.1,0.2,0,0.2,0.1,0.1c0.4-0.2,3.6,0.8,4.2,1.3c0.2,0.2,1.3,0.3,2.5,0.3c2.6-0.1,3.2,0.1,3.1,0.7c-0.1,0.4,0.2,0.5,2,0.4
	c2.3,0,3.9-0.5,8.3-2.5c2.3-1,4.9-1.6,4.9-1.1c0,0.3-1.4,3.1-2.3,4.5c-0.4,0.7-0.8,1.4-0.8,1.6c0,0.2-0.1,0.5-0.3,0.6
	c-0.2,0.1-0.2,0.3-0.1,0.4c0.1,0.1,0,0.3-0.2,0.3c-0.3,0-0.2,1.4,0.2,2.5c0.1,0.3,0.1,0.4-0.2,0.2c-0.3-0.2-0.3-0.2,0,0.2
	c0.2,0.2,0.3,0.6,0.3,0.7c-0.1,0.5,0.4,2.8,0.9,3.9c0.3,0.6,0.5,1.2,0.4,1.2c-0.2,0.2-1.7-0.5-4.5-2.4c-1.5-1-3.5-2.2-4.3-2.6
	l-1.5-0.7l-1.9,0.5c-1.8,0.5-2.2,0.8-1.6,1.1c0.9,0.5-0.6,2.6-1.6,2.2c-0.4-0.1-0.4-0.1-0.2,0.1c0.3,0.2,0.2,0.4-0.2,0.8
	c-0.3,0.3-0.8,0.5-1.1,0.6c-0.3,0.1-0.5,0.1-0.6,0.2c-0.1,0.1-0.6,0.2-1,0.2c-0.2,0-0.2,0.1,0.1,0.3c0.3,0.2,0.6,0.1,0.9-0.2
	c0.4-0.4,0.5-0.4,0.5,0c0,0.2-0.2,0.5-0.4,0.6c-0.2,0.1-0.6,0.6-0.8,1.1c-0.2,0.5-0.5,1.1-0.7,1.1c-0.4,0.3-2.1-0.9-3.1-2
	c-0.7-0.8-0.8-1.1-0.5-1.5c0.3-0.4,0.3-0.4,0-0.1c-0.3,0.3-0.5,0.2-1,0c-0.5-0.3-1-0.3-2.7,0c-1.2,0.2-2.2,0.3-2.3,0.2
	s0,0.3,0.3,0.9C43.3,40.5,41.8,41.8,38.8,40.7z"/>
</svg>
