<?xml version="1.0" encoding="utf-8"?>
<!-- Generator: Adobe Illustrator 18.0.0, SVG Export Plug-In . SVG Version: 6.00 Build 0)  -->
<!DOCTYPE svg PUBLIC "-//W3C//DTD SVG 1.1//EN" "http://www.w3.org/Graphics/SVG/1.1/DTD/svg11.dtd">
<svg version="1.1" id="Layer_1" xmlns="http://www.w3.org/2000/svg" xmlns:xlink="http://www.w3.org/1999/xlink" x="0px" y="0px"
	 viewBox="0 0 72 72" enable-background="new 0 0 72 72" xml:space="preserve">
<g>
	<path fill="#FFFFFF" d="M12.4,21.1c0-0.3,0.6-0.4,0.8-0.2c0.1,0.2,0.3,0,0.4-0.1c0.2,0,0.3,0.1,0.5,0.1c0.1,0,0.2,0,0.2-0.1
		c0.1-0.1,0.2,0,0.3,0c0.2,0,0.3,0.2,0.4,0.2c0.2,0,0.4,0,0.7,0c0.2,0.1,0.4-0.1,0.6,0c0.1,0.1,0.2,0.2,0.3,0.3
		c0.2,0.1,0.3-0.2,0.5,0c0,0.1,0.1,0.2,0.2,0.1c0.1,0,0.1-0.1,0.2-0.2c0.2-0.1,0.3,0.1,0.4,0.2c0.2,0.1,0.1-0.2,0.2-0.3
		c0.2-0.2,0.4-0.2,0.5-0.5c0-0.1,0.3-0.3,0.4-0.3c0.1,0,0.2,0.1,0.2-0.1c0-0.1,0.2-0.1,0.2-0.2c0,0,0.3,0.1,0.4,0.1
		c0.1-0.1,0.1-0.2,0.1-0.3c0.1-0.3,0.4-0.2,0.7-0.2c-0.1-0.1,0.1-0.3,0.2-0.4c0.1-0.1,0.1-0.2,0.2-0.2c0.1,0,0.2,0.1,0.3,0.1
		c0-0.3,0.4-0.5,0.6-0.4c0.4,0.1,0.5-0.4,0.8-0.2c0.2,0.1,0.3,0.1,0.4,0.2c0.2,0,0.3,0,0.5,0c0.2,0,0.7,0.3,0.7-0.1
		c0,0.1,0.1,0,0.2,0c0.1,0,0.1,0.1,0.1,0.1c0,0.1,0.1,0,0.1,0c0.1,0,0.1,0.2,0.2,0.1c0.4-0.2,0.9-0.4,1.3-0.1
		c0.2,0.1,0.3,0.3,0.6,0.3c0.3,0.1,0.4,0.3,0.5,0.5c0.1,0.2,0.2,0.3,0.4,0.4c0.3,0.1,0.3,0.5,0.3,0.7c0.1-0.1,0.3-0.1,0.4-0.1
		c0.1,0,0.2,0.2,0.3,0.2c0.1,0,0.3,0,0.5,0c0.2,0,0.3,0.2,0.4,0.2c0.4,0.1,0.6,0.1,1,0.3c0.1,0.1,0.3,0.3,0.4,0.4
		c0.2,0.2,0.4,0.2,0.5,0.5c0.1,0.2,0.2,0.4,0.3,0.5c0.1,0.1,0,0.2,0.1,0.3c0.1,0.1,0.3,0.1,0.4,0.3c0.1,0.2-0.1,0.3,0.1,0.5
		c0.1,0.2,0.2,0.2,0.2,0.4c0,0.1,0.1,0.3,0,0.4c-0.1,0.1-0.2,0.2-0.3,0.4c0,0.1,0,0.1,0,0.2c0,0.1,0,0.2,0,0.3
		c0.1,0.3,0.5,0,0.7,0.1c0.1,0.1,0.2,0.2,0.4,0.4c0.2,0.2,0.3,0.2,0.5,0.3c0.3,0.1,0.3,0.6,0.6,0.8c0.1,0.1,0.1,0.2,0.1,0.3
		c0,0.1,0.3,0.1,0.3,0.2C35,28,35,28.1,35,28.2c0,0.2,0.1,0.2,0.2,0.3c0.1,0.1,0.3,0.2,0.3,0.4c0.1,0.2,0,0.4,0.1,0.5
		c0.1,0.1,0,0.2,0,0.3c0,0.2,0.1,0.3,0.1,0.5c0,0.3-0.3,0.5-0.4,0.8c-0.1,0.1,0,0.3,0.1,0.3c0.1,0.2,0.1,0.3,0,0.4
		c-0.1,0.1-0.2,0.3-0.2,0.4c0,0.1,0.1,0.1,0.1,0.2c0,0.1-0.1,0.1-0.1,0.2c0,0.1-0.1,0.1-0.1,0.3c0.1,0.1,0,0.3-0.1,0.4
		c-0.1,0.1-0.4,0.3-0.2,0.3c0,0.1,0,0.3-0.1,0.4c-0.1,0.1-0.2,0.2-0.2,0.3c-0.1,0.2-0.4,0-0.5,0.2c0,0.1,0,0.2-0.1,0.3
		c-0.1,0.1-0.3,0.2-0.4,0.3c-0.1,0.1-0.1,0.3-0.2,0.4c-0.1,0.1-0.1,0.2-0.2,0.3c-0.1,0.1-0.3,0-0.4,0c-0.2,0-0.3,0-0.4,0
		c-0.3,0.1-0.5,0.2-0.8,0c-0.3-0.1-0.6-0.1-0.9-0.2c-0.4-0.1-0.6-0.4-0.8-0.7c-0.1,0.1,0.1,0.2,0.1,0.3c0,0.1-0.1,0.1-0.2,0.2
		c-0.2,0.2-0.2,0.6-0.1,0.9c0,0.3,0.1,0.6,0,0.9c-0.1,0.4-0.5,0.5-0.8,0.6c0.2,0.2-0.1,0.5-0.2,0.6c-0.1,0.1-0.1,0.2,0,0.3
		c0,0.1,0,0.1,0,0.2c0,0.1,0.1,0.2,0.1,0.3c0.1,0.3,0,0.7,0.2,0.9c0.2,0.2,0.5,0,0.6-0.2c0.1-0.1,0-0.3-0.1-0.4
		c-0.1-0.2,0-0.3,0-0.4c0.1-0.1,0.2-0.3,0.4-0.3c0.1,0,0.3,0.1,0.4,0c0.1-0.1,0.1-0.3,0.2-0.4c0.1-0.1,0.2-0.3,0.4-0.4
		c0.2-0.2,0.8-0.6,1-0.2c0.2,0.2-0.2,0.6-0.3,0.8c0,0.2,0,0.4,0,0.6c0,0.2,0,0.5,0,0.7c-0.1,0.3-0.2,0.6-0.5,0.8
		c-0.1,0.1-0.2,0.1-0.3,0.1c-0.1,0-0.2,0-0.3,0c-0.3,0.1-0.6-0.1-0.8,0.2c-0.2,0.4-0.2,0.8-0.1,1.2c0.3,0.9,0.5,1.8,0.9,2.6
		c0.2,0.4,0.4,0.9,0.5,1.3c0.1-0.1,0.4-0.2,0.4-0.4c0.1-0.2,0.3-0.1,0.5-0.1c-0.1,0.1,0,0.2,0,0.3c0,0.2-0.1,0.3-0.2,0.4
		c-0.1,0.3-0.1,0.8,0,1.1c0.1,0.4,0.3,0.8,0.5,1.1c0.2,0.4,0.3,0.8,0.5,1.2c0.2,0.5,0.4,1,0.2,1.5c-0.1,0.3-0.4,0.5-0.7,0.7
		c-0.2,0.1-0.3,0.1-0.5,0.2c-0.1,0-0.2,0-0.3,0.1c-0.1,0.1,0,0.2-0.1,0.3c-0.1,0.1-0.2,0.2-0.3,0.3c-0.2,0.2-0.4,0.3-0.7,0.4
		c-0.3,0.1-0.5,0.4-0.7,0.7c-0.3,0.3-0.7,0.4-1,0.3c-0.3,0-0.7,0.1-1,0c-0.2-0.1-0.2,0.1-0.4,0.2c-0.2,0.1-0.4,0.1-0.6,0.2
		c-0.3,0-0.6,0.1-0.9-0.1c-0.3-0.2-0.5-0.6-0.6-0.9c0.1,0.2-0.1-0.1-0.1-0.1c-0.1-0.1-0.2-0.2-0.3-0.3c-0.3-0.3-0.6-0.7-0.8-1
		c-0.5-0.6-1-1.3-1.5-1.9c-0.5-0.6-0.9-1.2-1.4-1.8c-0.2-0.3-0.4-0.4-0.7-0.3c-0.3,0-0.5,0-0.8,0.3c-0.1,0.1-0.4,0.4-0.3,0.6
		c0.1,0.1,0.3,0.1,0.4,0.1c0.2,0,0.4,0.1,0.5,0.2c0.3,0.1,0.5,0.4,0.6,0.7c0,0.1,0,0.3,0,0.4c0,0.1,0,0.3,0,0.4
		c0,0.2,0.2,0.3,0.3,0.3c0.1,0.1,0.2,0.2,0.2,0.4c0,0.4,0,0.7-0.2,1c-0.1,0.3-0.2,0.6-0.3,1c0,0.2,0.1,0.3,0.1,0.4
		c0,0.2,0,0.4,0.1,0.5c-0.1-0.1-0.2,0-0.3,0c-0.1-0.1-0.3-0.1-0.4-0.1c-0.3-0.1-0.7-0.1-1-0.2c-0.4-0.2-0.5-0.6-0.7-0.8
		c-0.3-0.3-0.6-0.5-0.9-0.6c-0.1-0.1-0.2-0.2-0.3-0.3c-0.1-0.1-0.3-0.2-0.4-0.4c-0.2-0.3-0.2-0.7-0.1-1.1c0.1-0.4,0.3-0.6,0.6-0.9
		c0.2-0.3,0.3-0.6,0.3-0.9c0.1-0.3,0.1-0.6,0.3-0.9c0.1-0.2,0.2-0.3,0.4-0.4c0.1-0.1,0.1-0.2,0.2-0.2c0.1,0,0.1,0,0.2,0
		c0.3-0.2,1.5,0,1-0.6c-0.3-0.3-0.6-0.6-1-0.9c-0.6-0.5-1.3-0.9-2-1.2c0,0.3-0.3,0.6-0.6,0.7c-0.2,0.2-0.7,0.4-1,0.3
		c-0.1,0-0.5,0-0.5-0.1c0-0.1,0.2-0.3,0.2-0.4c0.1-0.2,0.1-0.4,0.1-0.6c0-0.2-0.1-0.3,0-0.5c0-0.1,0.2-0.2,0.2-0.3
		c-0.1-0.3-0.4-0.2-0.6-0.2c-0.3,0-0.5-0.1-0.8,0c-0.1,0-0.2,0.2-0.3,0.3c-0.2,0.2-0.1,0.3-0.1,0.5c0,0.4-0.2,0.7-0.5,0.9
		c-0.2,0.1-0.3,0.1-0.3,0.2c0,0.2-0.2,0.3-0.4,0.4c-0.2,0.1-0.4,0.1-0.5,0c-0.1,0-0.3-0.1-0.4,0c-0.1,0.1-0.7,0.4-0.8,0.2
		c-0.2-0.2-0.4,0-0.7,0c-0.1,0-0.3-0.1-0.5-0.1C9.2,46.2,9,45.9,8.9,46c-0.1,0-0.2,0.1-0.3,0.2c-0.1,0.1-0.1,0.3-0.2,0.4
		c-0.1,0.1-0.2,0.2-0.4,0.3c-0.2,0.1-0.4,0-0.6,0.1c-0.1,0-0.2,0.1-0.4,0.2c-0.1,0.1-0.2,0-0.4,0.1c-0.1,0.1-0.1-0.1-0.2-0.2
		c-0.1-0.1-0.3,0-0.3,0.1c-0.3,0.1-0.6,0.2-0.8,0.1C5.3,47.1,5.1,47,5,46.8c-0.1-0.1-0.1-0.3-0.3-0.3c-0.2,0-0.3-0.1-0.5-0.1
		C4.1,46.3,4,46.1,3.8,46c-0.1-0.1-0.3-0.1-0.4-0.2c-0.1-0.1-0.1-0.2-0.1-0.4c0-0.1,0.1-0.2,0.1-0.3c0-0.1-0.1-0.3-0.1-0.4
		c0-0.2,0.3-0.3,0.3-0.5c0-0.2-0.7-0.1-0.8,0c-0.3,0.1-0.7,0-0.9-0.2c-0.2-0.2-0.1-0.5-0.1-0.8C1.7,43,1.5,43,1.4,43
		c-0.1-0.1-0.2-0.2-0.3-0.4c0-0.1,0-0.2,0.1-0.3c0.1-0.1-0.1-0.2-0.2-0.2c-0.3-0.1-0.4-0.5-0.2-0.7c0.2-0.3,0.1-0.3,0.1-0.6
		c0-0.2,0.1-0.6,0.3-0.7C1,40,0.8,39.9,0.8,39.7c-0.1-0.2,0-0.3,0.1-0.5c-0.4-0.1-0.6-0.2-0.6-0.6c0-0.3-0.3-0.6-0.1-0.9
		C0.3,37.5,0,37.3,0,37.1c0-0.1,0.1-0.2,0.2-0.3c0.2-0.1,0-0.3-0.1-0.4c-0.1-0.3,0.3-0.5,0.3-0.8c0-0.1-0.2-0.3-0.1-0.4
		C0.4,35,0.5,35,0.5,34.8c0-0.3,0.5-0.4,0.4-0.7c0-0.2,0.1-0.2,0.2-0.3c0.2-0.1,0.2-0.3,0.4-0.4c0.1-0.1,0.3,0,0.5,0
		C2,33.4,2,33.1,2,33.1c0.1-0.1,0.2-0.3,0.3-0.4c0.1-0.1,0-0.3,0.1-0.5c0.1-0.1,0.1-0.1,0.2-0.2c0.1-0.1,0.1-0.2,0.1-0.2
		c0.1-0.1,0.3-0.1,0.4-0.1c0.1,0,0.2-0.1,0.2-0.3c0-0.1-0.1-0.1-0.1-0.2c0-0.1,0.1-0.2,0-0.2c-0.1-0.2-0.2-0.3-0.3-0.5
		c0-0.2-0.1-0.3-0.1-0.5c0-0.1,0-0.3,0.1-0.4c0.1-0.2,0.1-0.2,0-0.4c-0.1-0.2-0.1-0.3,0-0.4c0.1-0.1,0-0.2,0.1-0.4
		c0-0.1,0.1-0.2,0.2-0.3c0.1-0.1,0.2-0.3,0.4-0.4c0.4-0.1,0.3-0.3,0.2-0.7c0-0.1,0-0.3,0.1-0.5c0.1-0.1,0.3-0.1,0.4-0.2
		c0.1-0.1,0.1-0.2,0.2-0.3c0.1-0.2,0.2-0.1,0.4-0.1c0.2,0,0.3-0.2,0.3-0.4c0-0.2,0.1-0.4,0.3-0.5c0.1-0.1,0.3-0.1,0.5-0.1
		c0.2,0,0.4,0,0.6-0.1c0.2-0.1,0.3-0.2,0.5-0.2c0.2,0,0.3,0.2,0.4,0.2c0.1,0,0.2-0.1,0.3-0.2c0.2-0.1,0.3,0,0.4,0
		c0.2,0,0.6-0.3,0.5-0.5c0.3,0.2,0.3-0.7,0.4-0.8C9.4,23,9.6,23,9.8,22.9c0.1-0.1,0.1-0.2,0.2-0.2c0,0,0.1,0,0.2,0
		c0.1-0.1,0-0.3,0.2-0.4c0.2-0.1,0.4-0.1,0.5-0.2c0.1-0.1,0-0.3,0.2-0.4c0.1-0.1,0.3-0.3,0.5-0.2c-0.1-0.1,0.1-0.4,0.2-0.4
		C11.9,20.9,12.2,21.2,12.4,21.1"/>
	<path fill-rule="evenodd" clip-rule="evenodd" fill="#FFFFFF" d="M68.5,4.9c-0.5-1-0.7-3.2-2.2-2.4c-0.9,0.4-1.3,2-1.2,2.8
		c-0.3-0.1-0.6-0.2-0.7-0.4c-0.1-0.3,0.2-1.1,0.6-1.4c0.3-0.8,0.1-1.2-0.2-1.4c-0.6-0.4-2,0-2.4,0c-0.5-0.6-0.9-1-1.9-1.5
		c-0.2,0.2-0.3,0.5-0.4,0.8c-0.4,0.4-1,0.6-1.5,0.4c-0.7-0.4-1.3-1.3-2-1C55.4,1.4,55.7,3,55,3.3c-0.9,0-1.4-0.1-2,0.6
		C52.5,5,54.2,6.6,54,7.7c-0.5,0.8-1.2,0.9-1.6,1.7c-0.1,0.8,0.7,1.5,1,2c-0.7-0.1-1-0.1-1.6,0.2c-0.2,0.4,0.7,1,0.8,1.5
		c0,0.3-0.4,0.7-0.9,1c0.8,1.3,2.1,1.7,1.2,3.6c0,0-0.8,3.1-0.8,4.6c0,0.1-0.1,0.2-0.1,0.4c-0.8-0.1-1.7,0-2.6,0.2
		c-0.3,0.1-0.6,0.2-0.9,0.3c-4.2,1.9-6.3,6.3-5.9,10.7c-2.1,2.3-1.7,5.2-1.3,6.6c-0.9,1.3-1.7,3.2-1.2,4.7c-1.1,0.7,0.1,3.9-0.5,5.2
		c-0.8,1.7-0.9,2.2-1,3.9c-1.4,1.5-1.5,3.7-1.4,5c-1,1.6-2.5,4-2.5,6c0,1.7-0.1,4.3,0.9,5.9c0.6-0.5,0.5-0.8,0.9-2.1
		c0.4-1.2,0.2-2.4,0.7-3.6c0.5-1.3,2-2.4,1.9-4.3c1-0.4,6.8-5.1,7.8-9.1c1.1-1,1.5-2.9,2.7-4.3c1-1.1,1.9-3.1,2.3-4.4
		c1.1-0.9,3-4.2,3.5-6.4c0.5-0.1,1.7-1,2.9-3.6c1.4-2.9,0.6-6.7-1.9-8.9c0.1,0,0.2,0,0.3-0.2l5.6-5.1c1.1,0.3,3.6,0.4,4-0.5
		c0.2-0.3-0.6-0.7-1-1.4c1.8-0.6,2.4-2.5,3.9-3.2c0.4-0.2,0.9-0.3,1.5-0.3c0.4-0.3,0.6-0.5,0.6-0.8c0-0.6-0.5-1.2-0.7-1.8
		c-0.2-0.6-0.2-1,1.1-1.3c0.4-0.4,0.5-0.9,0.3-1.3c-0.2-0.5-0.7-0.8-1.4-0.7c0-0.5-0.2-1.1-0.2-1.2C72.2,6,69.5,3.6,68.5,4.9z"/>
</g>
</svg>
